<svg width="32" height="32" viewBox="0 0 32 32" fill="none" xmlns="http://www.w3.org/2000/svg">
  <defs>
    <linearGradient id="logoGradient" x1="0%" y1="0%" x2="100%" y2="100%">
      <stop offset="0%" stop-color="#9333ea" />
      <stop offset="50%" stop-color="#2563eb" />
      <stop offset="100%" stop-color="#06b6d4" />
    </linearGradient>
  </defs>
  
  <!-- Background circle -->
  <circle cx="16" cy="16" r="15" fill="url(#logoGradient)" />
  
  <!-- Lightning bolt (Zap icon simplified) -->
  <path 
    d="M12 8L20 16H16L20 24L12 16H16L12 8Z" 
    fill="white"
    stroke="white"
    stroke-width="0.5"
  />
  
  <!-- Small heart accent -->
  <path 
    d="M22 10C22 9.5 21.8 9.1 21.4 8.9C21 8.7 20.5 8.8 20.2 9.1L19 10.3L17.8 9.1C17.5 8.8 17 8.7 16.6 8.9C16.2 9.1 16 9.5 16 10C16 10.3 16.1 10.5 16.3 10.7L19 13.4L21.7 10.7C21.9 10.5 22 10.3 22 10Z" 
    fill="#fbb6ce"
  />
</svg>